<svg width="27" height="27" viewBox="0 0 27 27" fill="none" xmlns="http://www.w3.org/2000/svg">
<path d="M21.3411 12.4165H10.5078L14.072 8.85238C14.1735 8.75167 14.2541 8.63185 14.3091 8.49984C14.3641 8.36783 14.3924 8.22623 14.3924 8.08322C14.3924 7.9402 14.3641 7.7986 14.3091 7.66659C14.2541 7.53458 14.1735 7.41476 14.072 7.31405C13.869 7.11228 13.5944 6.99902 13.3082 6.99902C13.022 6.99902 12.7475 7.11228 12.5445 7.31405L7.89698 11.9724C7.49009 12.3768 7.26023 12.9262 7.25781 13.4999C7.26308 14.0698 7.49273 14.6147 7.89698 15.0165L12.5445 19.6749C12.6455 19.7752 12.7653 19.8546 12.897 19.9086C13.0287 19.9626 13.1697 19.9902 13.3121 19.9897C13.4544 19.9891 13.5953 19.9606 13.7266 19.9057C13.8579 19.8507 13.9771 19.7705 14.0774 19.6695C14.1777 19.5685 14.2571 19.4487 14.3111 19.317C14.3651 19.1853 14.3927 19.0442 14.3922 18.9019C14.3917 18.7595 14.3631 18.6187 14.3082 18.4874C14.2533 18.3561 14.173 18.2368 14.072 18.1365L10.5078 14.5832H21.3411C21.6285 14.5832 21.904 14.4691 22.1072 14.2659C22.3103 14.0627 22.4245 13.7872 22.4245 13.4999C22.4245 13.2126 22.3103 12.937 22.1072 12.7339C21.904 12.5307 21.6285 12.4165 21.3411 12.4165Z" fill="black"/>
</svg>
