<svg width="20" height="21" viewBox="0 0 20 21" fill="none" xmlns="http://www.w3.org/2000/svg">
<g clip-path="url(#clip0_1345_656)">
<path d="M20 7.84844V6.86406V2.21406H16.6094V1.02344H15.625V2.21406H10.4906V1.02344H9.50625V2.21406H4.375V1.02344H3.39062V2.21406H0V6.86406V7.84844V20.5328H20V7.84844ZM19.0156 19.5484H0.984375V7.84844H19.0156V19.5484ZM19.0156 6.86406H0.984375V3.19531H3.39062V4.38594H4.375V3.19531H9.50937V4.38594H10.4938V3.19531H15.625V4.38594H16.6094V3.19531H19.0187V6.86406H19.0156Z" fill="#071D4C"/>
<path d="M3.34766 9.79297H4.62578V10.7773H3.34766V9.79297Z" fill="#071D4C"/>
<path d="M3.34766 13.2051H4.62578V14.1895H3.34766V13.2051Z" fill="#071D4C"/>
<path d="M3.34766 16.6172H4.62578V17.6016H3.34766V16.6172Z" fill="#071D4C"/>
<path d="M7.35547 9.79297H8.63359V10.7773H7.35547V9.79297Z" fill="#071D4C"/>
<path d="M7.35547 13.2051H8.63359V14.1895H7.35547V13.2051Z" fill="#071D4C"/>
<path d="M7.35547 16.6172H8.63359V17.6016H7.35547V16.6172Z" fill="#071D4C"/>
<path d="M11.3652 9.79297H12.6434V10.7773H11.3652V9.79297Z" fill="#071D4C"/>
<path d="M11.3652 13.2051H12.6434V14.1895H11.3652V13.2051Z" fill="#071D4C"/>
<path d="M11.3652 16.6172H12.6434V17.6016H11.3652V16.6172Z" fill="#071D4C"/>
<path d="M15.3711 9.79297H16.6492V10.7773H15.3711V9.79297Z" fill="#071D4C"/>
<path d="M15.3711 13.2051H16.6492V14.1895H15.3711V13.2051Z" fill="#071D4C"/>
<path d="M15.3711 16.6172H16.6492V17.6016H15.3711V16.6172Z" fill="#071D4C"/>
</g>
<defs>
<clipPath id="clip0_1345_656">
<rect width="20" height="20" fill="white" transform="translate(0 0.777344)"/>
</clipPath>
</defs>
</svg>
