<svg width="52" height="52" viewBox="0 0 52 52" fill="none" xmlns="http://www.w3.org/2000/svg">
<rect x="1.5" y="1.5" width="49" height="49" rx="24.5" stroke="#071D4C" stroke-width="3"/>
<path d="M35.0872 17.6625C33.4247 16.8875 31.6247 16.325 29.7497 16C29.7167 16.0005 29.6852 16.0139 29.6622 16.0375C29.4372 16.45 29.1747 16.9875 28.9997 17.4C27.0109 17.1002 24.9884 17.1002 22.9997 17.4C22.8247 16.975 22.5622 16.45 22.3247 16.0375C22.3122 16.0125 22.2747 16 22.2372 16C20.3622 16.325 18.5747 16.8875 16.8997 17.6625C16.8872 17.6625 16.8747 17.675 16.8622 17.6875C13.4622 22.775 12.5247 27.725 12.9872 32.625C12.9872 32.65 12.9997 32.675 13.0247 32.6875C15.2747 34.3375 17.4372 35.3375 19.5747 36C19.6122 36.0125 19.6497 36 19.6622 35.975C20.1622 35.2875 20.6122 34.5625 20.9997 33.8C21.0247 33.75 20.9997 33.7 20.9497 33.6875C20.2372 33.4125 19.5622 33.0875 18.8997 32.7125C18.8497 32.6875 18.8497 32.6125 18.8872 32.575C19.0247 32.475 19.1622 32.3625 19.2997 32.2625C19.3247 32.2375 19.3622 32.2375 19.3872 32.25C23.6872 34.2125 28.3247 34.2125 32.5747 32.25C32.5997 32.2375 32.6372 32.2375 32.6622 32.2625C32.7997 32.375 32.9372 32.475 33.0747 32.5875C33.1247 32.625 33.1247 32.7 33.0622 32.725C32.4122 33.1125 31.7247 33.425 31.0122 33.7C30.9622 33.7125 30.9497 33.775 30.9622 33.8125C31.3622 34.575 31.8122 35.3 32.2997 35.9875C32.3372 36 32.3747 36.0125 32.4122 36C34.5622 35.3375 36.7247 34.3375 38.9747 32.6875C38.9997 32.675 39.0122 32.65 39.0122 32.625C39.5622 26.9625 38.0997 22.05 35.1372 17.6875C35.1247 17.675 35.1122 17.6625 35.0872 17.6625ZM21.6497 29.6375C20.3622 29.6375 19.2872 28.45 19.2872 26.9875C19.2872 25.525 20.3372 24.3375 21.6497 24.3375C22.9747 24.3375 24.0247 25.5375 24.0122 26.9875C24.0122 28.45 22.9622 29.6375 21.6497 29.6375ZM30.3622 29.6375C29.0747 29.6375 27.9997 28.45 27.9997 26.9875C27.9997 25.525 29.0497 24.3375 30.3622 24.3375C31.6872 24.3375 32.7372 25.5375 32.7247 26.9875C32.7247 28.45 31.6872 29.6375 30.3622 29.6375Z" fill="#071D4C"/>
</svg>
