<svg width="41" height="40" viewBox="0 0 41 40" fill="none" xmlns="http://www.w3.org/2000/svg">
<path d="M0.5 35.5556H40.5V40H0.5V35.5556ZM7.16667 28.8889C9.61111 28.8889 11.6111 26.8889 11.6111 24.4444C11.6111 23.3333 11.1667 22.2222 10.5 21.5556L13.3889 15.5556H13.8333C14.9444 15.5556 16.0556 15.1111 16.7222 14.4444L22.7222 17.5556V17.7778C22.7222 20.2222 24.7222 22.2222 27.1667 22.2222C29.6111 22.2222 31.6111 20.2222 31.6111 17.7778C31.6111 16.6667 31.1667 15.7778 30.5 14.8889L33.3889 8.88889H33.8333C36.2778 8.88889 38.2778 6.88889 38.2778 4.44444C38.2778 2 36.2778 0 33.8333 0C31.3889 0 29.3889 2 29.3889 4.44444C29.3889 5.55556 29.8333 6.66667 30.5 7.33333L27.6111 13.3333H27.1667C26.0556 13.3333 24.9444 13.7778 24.2778 14.4444L18.2778 11.5556V11.1111C18.2778 8.66667 16.2778 6.66667 13.8333 6.66667C11.3889 6.66667 9.38889 8.66667 9.38889 11.1111C9.38889 12.2222 9.83333 13.3333 10.5 14L7.61111 20H7.16667C4.72222 20 2.72222 22 2.72222 24.4444C2.72222 26.8889 4.72222 28.8889 7.16667 28.8889Z" fill="#2D5AC7"/>
</svg>
