<svg width="52" height="52" viewBox="0 0 52 52" fill="none" xmlns="http://www.w3.org/2000/svg">
<rect x="1.5" y="1.5" width="49" height="49" rx="24.5" stroke="#071D4C" stroke-width="3"/>
<path d="M27.2847 13.5C28.691 13.5038 29.4047 13.5113 30.021 13.5288L30.2635 13.5375C30.5435 13.5475 30.8197 13.56 31.1535 13.575C32.4835 13.6375 33.391 13.8475 34.1872 14.1563C35.0122 14.4738 35.7072 14.9037 36.4022 15.5975C37.0381 16.2222 37.53 16.9781 37.8435 17.8125C38.1522 18.6087 38.3622 19.5162 38.4247 20.8475C38.4397 21.18 38.4522 21.4563 38.4622 21.7375L38.4697 21.98C38.4885 22.595 38.496 23.3088 38.4985 24.715L38.4997 25.6475V27.285C38.5028 28.1968 38.4932 29.1085 38.471 30.02L38.4635 30.2625C38.4535 30.5437 38.441 30.82 38.426 31.1525C38.3635 32.4837 38.151 33.39 37.8435 34.1875C37.53 35.0219 37.0381 35.7778 36.4022 36.4025C35.7776 37.0384 35.0216 37.5302 34.1872 37.8438C33.391 38.1525 32.4835 38.3625 31.1535 38.425L30.2635 38.4625L30.021 38.47C29.4047 38.4875 28.691 38.4963 27.2847 38.4988L26.3522 38.5H24.716C23.8038 38.5032 22.8916 38.4936 21.9797 38.4712L21.7372 38.4638C21.4405 38.4525 21.1438 38.4396 20.8472 38.425C19.5172 38.3625 18.6097 38.1525 17.8122 37.8438C16.9783 37.5301 16.2228 37.0382 15.5985 36.4025C14.9622 35.778 14.4699 35.022 14.156 34.1875C13.8472 33.3912 13.6372 32.4837 13.5747 31.1525L13.5372 30.2625L13.531 30.02C13.5079 29.1085 13.4975 28.1968 13.4997 27.285V24.715C13.4963 23.8033 13.5054 22.8915 13.5272 21.98L13.536 21.7375C13.546 21.4563 13.5585 21.18 13.5735 20.8475C13.636 19.5162 13.846 18.61 14.1547 17.8125C14.4694 16.9777 14.9625 16.2218 15.5997 15.5975C16.2237 14.9619 16.9787 14.4701 17.8122 14.1563C18.6097 13.8475 19.516 13.6375 20.8472 13.575C21.1797 13.56 21.4572 13.5475 21.7372 13.5375L21.9797 13.53C22.8912 13.5078 23.803 13.4982 24.7147 13.5012L27.2847 13.5ZM25.9997 19.75C24.3421 19.75 22.7524 20.4085 21.5803 21.5806C20.4082 22.7527 19.7497 24.3424 19.7497 26C19.7497 27.6576 20.4082 29.2473 21.5803 30.4194C22.7524 31.5915 24.3421 32.25 25.9997 32.25C27.6573 32.25 29.247 31.5915 30.4192 30.4194C31.5913 29.2473 32.2497 27.6576 32.2497 26C32.2497 24.3424 31.5913 22.7527 30.4192 21.5806C29.247 20.4085 27.6573 19.75 25.9997 19.75ZM25.9997 22.25C26.4922 22.2499 26.9798 22.3468 27.4348 22.5352C27.8898 22.7236 28.3033 22.9997 28.6516 23.3479C28.9998 23.6961 29.2761 24.1094 29.4647 24.5644C29.6532 25.0193 29.7503 25.5069 29.7504 25.9994C29.7504 26.4918 29.6535 26.9795 29.4651 27.4345C29.2768 27.8895 29.0006 28.3029 28.6525 28.6512C28.3043 28.9995 27.8909 29.2758 27.436 29.4643C26.9811 29.6528 26.4934 29.7499 26.001 29.75C25.0064 29.75 24.0526 29.3549 23.3493 28.6517C22.6461 27.9484 22.251 26.9946 22.251 26C22.251 25.0054 22.6461 24.0516 23.3493 23.3483C24.0526 22.6451 25.0064 22.25 26.001 22.25M32.5635 17.875C32.1491 17.875 31.7517 18.0396 31.4586 18.3326C31.1656 18.6257 31.001 19.0231 31.001 19.4375C31.001 19.8519 31.1656 20.2493 31.4586 20.5424C31.7517 20.8354 32.1491 21 32.5635 21C32.9779 21 33.3753 20.8354 33.6683 20.5424C33.9614 20.2493 34.126 19.8519 34.126 19.4375C34.126 19.0231 33.9614 18.6257 33.6683 18.3326C33.3753 18.0396 32.9779 17.875 32.5635 17.875Z" fill="#071D4C"/>
</svg>
