<svg width="183" height="149" viewBox="0 0 183 149" fill="none" xmlns="http://www.w3.org/2000/svg">
<rect x="1.42969" y="1.35254" width="180.319" height="145.902" rx="15" fill="white" stroke="#E6E6E6" stroke-width="2"/>
<path d="M69.4506 126.804V116.622H73.0799C73.872 116.622 74.5283 116.766 75.0487 117.054C75.569 117.343 75.9585 117.737 76.217 118.238C76.4755 118.735 76.6048 119.295 76.6048 119.918C76.6048 120.544 76.4738 121.108 76.212 121.608C75.9535 122.106 75.5624 122.5 75.0387 122.792C74.5183 123.08 73.8638 123.224 73.0749 123.224H70.5792V121.922H72.9357C73.4362 121.922 73.8422 121.835 74.1538 121.663C74.4653 121.487 74.694 121.249 74.8398 120.947C74.9857 120.646 75.0586 120.303 75.0586 119.918C75.0586 119.534 74.9857 119.192 74.8398 118.894C74.694 118.596 74.4637 118.362 74.1488 118.193C73.8372 118.024 73.4263 117.939 72.9158 117.939H70.9869V126.804H69.4506ZM80.4403 126.973C79.9564 126.973 79.5189 126.883 79.1278 126.704C78.7367 126.522 78.4268 126.258 78.1982 125.914C77.9728 125.569 77.8601 125.147 77.8601 124.646C77.8601 124.215 77.9429 123.861 78.1087 123.582C78.2744 123.304 78.4981 123.083 78.7798 122.921C79.0616 122.758 79.3764 122.636 79.7244 122.553C80.0724 122.47 80.4271 122.407 80.7884 122.364C81.2457 122.311 81.617 122.268 81.902 122.235C82.187 122.198 82.3942 122.14 82.5234 122.061C82.6527 121.981 82.7173 121.852 82.7173 121.673V121.638C82.7173 121.204 82.5947 120.868 82.3494 120.629C82.1075 120.39 81.7462 120.271 81.2656 120.271C80.7652 120.271 80.3707 120.382 80.0824 120.604C79.7973 120.823 79.6001 121.066 79.4908 121.335L78.0938 121.017C78.2595 120.553 78.5014 120.178 78.8196 119.893C79.1411 119.605 79.5107 119.396 79.9283 119.267C80.3459 119.134 80.785 119.068 81.2457 119.068C81.5507 119.068 81.8738 119.104 82.2152 119.177C82.5599 119.247 82.8814 119.376 83.1797 119.565C83.4813 119.754 83.7282 120.024 83.9205 120.375C84.1127 120.723 84.2088 121.176 84.2088 121.733V126.804H82.7571V125.76H82.6974C82.6013 125.952 82.4571 126.141 82.2649 126.326C82.0727 126.512 81.8258 126.666 81.5241 126.789C81.2225 126.911 80.8613 126.973 80.4403 126.973ZM80.7635 125.78C81.1745 125.78 81.5258 125.698 81.8175 125.536C82.1125 125.374 82.3362 125.161 82.4886 124.9C82.6444 124.634 82.7223 124.351 82.7223 124.049V123.065C82.6693 123.118 82.5665 123.168 82.4141 123.214C82.2649 123.257 82.0942 123.295 81.902 123.329C81.7098 123.358 81.5225 123.387 81.3402 123.413C81.1579 123.436 81.0054 123.456 80.8828 123.473C80.5945 123.509 80.331 123.571 80.0923 123.657C79.857 123.743 79.6681 123.867 79.5256 124.03C79.3864 124.189 79.3168 124.401 79.3168 124.666C79.3168 125.034 79.4527 125.312 79.7244 125.501C79.9962 125.687 80.3426 125.78 80.7635 125.78ZM86.8549 129.667C86.6329 129.667 86.4307 129.649 86.2484 129.613C86.0661 129.58 85.9302 129.543 85.8407 129.503L86.1987 128.285C86.4705 128.358 86.7124 128.39 86.9245 128.38C87.1367 128.37 87.3239 128.29 87.4863 128.141C87.652 127.992 87.7979 127.748 87.9238 127.41L88.1078 126.903L85.3137 119.167H86.9047L88.8386 125.093H88.9181L90.8521 119.167H92.448L89.301 127.823C89.1551 128.221 88.9695 128.557 88.7441 128.832C88.5188 129.111 88.2503 129.319 87.9387 129.459C87.6272 129.598 87.2659 129.667 86.8549 129.667ZM93.9643 126.804V116.622H97.5936C98.3857 116.622 99.042 116.766 99.5623 117.054C100.083 117.343 100.472 117.737 100.731 118.238C100.989 118.735 101.118 119.295 101.118 119.918C101.118 120.544 100.988 121.108 100.726 121.608C100.467 122.106 100.076 122.5 99.5524 122.792C99.032 123.08 98.3774 123.224 97.5886 123.224H95.0929V121.922H97.4494C97.9499 121.922 98.3559 121.835 98.6674 121.663C98.979 121.487 99.2077 121.249 99.3535 120.947C99.4993 120.646 99.5723 120.303 99.5723 119.918C99.5723 119.534 99.4993 119.192 99.3535 118.894C99.2077 118.596 98.9773 118.362 98.6625 118.193C98.3509 118.024 97.9399 117.939 97.4295 117.939H95.5005V126.804H93.9643ZM104.954 126.973C104.47 126.973 104.033 126.883 103.642 126.704C103.25 126.522 102.941 126.258 102.712 125.914C102.486 125.569 102.374 125.147 102.374 124.646C102.374 124.215 102.457 123.861 102.622 123.582C102.788 123.304 103.012 123.083 103.294 122.921C103.575 122.758 103.89 122.636 104.238 122.553C104.586 122.47 104.941 122.407 105.302 122.364C105.759 122.311 106.131 122.268 106.416 122.235C106.701 122.198 106.908 122.14 107.037 122.061C107.166 121.981 107.231 121.852 107.231 121.673V121.638C107.231 121.204 107.108 120.868 106.863 120.629C106.621 120.39 106.26 120.271 105.779 120.271C105.279 120.271 104.884 120.382 104.596 120.604C104.311 120.823 104.114 121.066 104.004 121.335L102.607 121.017C102.773 120.553 103.015 120.178 103.333 119.893C103.655 119.605 104.024 119.396 104.442 119.267C104.86 119.134 105.299 119.068 105.759 119.068C106.064 119.068 106.387 119.104 106.729 119.177C107.074 119.247 107.395 119.376 107.693 119.565C107.995 119.754 108.242 120.024 108.434 120.375C108.626 120.723 108.722 121.176 108.722 121.733V126.804H107.271V125.76H107.211C107.115 125.952 106.971 126.141 106.779 126.326C106.586 126.512 106.339 126.666 106.038 126.789C105.736 126.911 105.375 126.973 104.954 126.973ZM105.277 125.78C105.688 125.78 106.039 125.698 106.331 125.536C106.626 125.374 106.85 125.161 107.002 124.9C107.158 124.634 107.236 124.351 107.236 124.049V123.065C107.183 123.118 107.08 123.168 106.928 123.214C106.779 123.257 106.608 123.295 106.416 123.329C106.223 123.358 106.036 123.387 105.854 123.413C105.672 123.436 105.519 123.456 105.396 123.473C105.108 123.509 104.845 123.571 104.606 123.657C104.371 123.743 104.182 123.867 104.039 124.03C103.9 124.189 103.83 124.401 103.83 124.666C103.83 125.034 103.966 125.312 104.238 125.501C104.51 125.687 104.856 125.78 105.277 125.78ZM112.189 116.622V126.804H110.702V116.622H112.189Z" fill="#435376"/>
<g clip-path="url(#clip0_0_1)">
<path d="M108.473 51.5074C108.558 50.8056 108.602 50.0911 108.602 49.3661C108.602 43.2717 103.758 38.3311 97.7832 38.3311H79.7029C78.5656 38.3311 77.5946 39.1688 77.4059 40.3127L70.7438 80.7018C70.5047 82.1511 71.6001 83.4718 73.0408 83.4718H79.6532C80.7905 83.4718 81.7797 82.6347 81.9683 81.4907C81.9683 81.4907 81.9794 81.4237 81.9993 81.3029H81.9994L81.0779 86.8896C80.8673 88.1669 81.8327 89.3311 83.1025 89.3311H88.8874C89.8898 89.3311 90.7457 88.5927 90.9119 87.5844L92.5553 77.6215C92.8386 75.904 94.2964 74.6464 96.0037 74.6464H97.5234C105.778 74.6464 112.47 67.8207 112.47 59.4008C112.47 56.1427 110.891 53.2627 108.473 51.5074Z" fill="#002987"/>
<path d="M108.473 51.5078C107.438 60.092 100.265 66.7391 91.5698 66.7391H86.5244C85.3856 66.7391 84.4021 67.5127 84.0936 68.6067L81.0778 86.8899C80.8671 88.1673 81.8325 89.3315 83.1023 89.3315H88.8872C89.8896 89.3315 90.7455 88.5931 90.9117 87.5848L92.5551 77.6219C92.8384 75.9044 94.2961 74.6469 96.0035 74.6469H97.5232C105.778 74.6469 112.47 67.8211 112.47 59.4013C112.47 56.1431 110.891 53.2631 108.473 51.5078Z" fill="#0085CC"/>
<path d="M86.5246 66.7387H91.57C100.266 66.7387 107.438 60.0917 108.473 51.5076C106.921 50.3814 105.025 49.7168 102.976 49.7168H89.8069C88.3076 49.7168 87.0274 50.8212 86.7786 52.3293L84.0938 68.6062C84.4022 67.5123 85.3858 66.7387 86.5246 66.7387Z" fill="#00186A"/>
</g>
<defs>
<clipPath id="clip0_0_1">
<rect width="50" height="51" fill="white" transform="translate(66.5898 38.3311)"/>
</clipPath>
</defs>
</svg>
