<svg width="183" height="149" viewBox="0 0 183 149" fill="none" xmlns="http://www.w3.org/2000/svg">
<rect x="1.25" y="1.35254" width="180.319" height="145.902" rx="15" fill="white" stroke="#E6E6E6" stroke-width="2"/>
<path d="M113.884 41.3584H68.9385C65.8345 41.3584 63.3485 43.8725 63.3485 46.9766L63.3203 80.6854C63.3203 83.7896 65.8344 86.3036 68.9385 86.3036H113.884C116.988 86.3036 119.502 83.7896 119.502 80.6854V46.9765C119.502 43.8725 116.988 41.3584 113.884 41.3584ZM113.884 80.6854H68.9385V63.8309H113.884V80.6854ZM113.884 52.5947H68.9385V46.9765H113.884V52.5947Z" fill="#2D5AC7"/>
<path d="M39.8761 119.933H38.3249C38.2653 119.602 38.1542 119.31 37.9918 119.058C37.8294 118.806 37.6306 118.592 37.3952 118.417C37.1599 118.241 36.8964 118.108 36.6048 118.019C36.3164 117.929 36.0098 117.885 35.685 117.885C35.0984 117.885 34.573 118.032 34.109 118.327C33.6483 118.622 33.2837 119.055 33.0153 119.625C32.7501 120.195 32.6175 120.891 32.6175 121.713C32.6175 122.541 32.7501 123.241 33.0153 123.811C33.2837 124.381 33.65 124.812 34.114 125.103C34.578 125.395 35.1 125.541 35.68 125.541C36.0015 125.541 36.3065 125.498 36.5948 125.412C36.8865 125.322 37.15 125.191 37.3853 125.019C37.6206 124.847 37.8195 124.636 37.9819 124.388C38.1476 124.136 38.262 123.847 38.3249 123.522L39.8761 123.527C39.7932 124.028 39.6325 124.489 39.3938 124.91C39.1585 125.327 38.8552 125.688 38.484 125.993C38.1161 126.295 37.6952 126.529 37.2212 126.694C36.7473 126.86 36.2302 126.943 35.6701 126.943C34.7885 126.943 34.003 126.734 33.3136 126.316C32.6242 125.896 32.0806 125.294 31.6829 124.512C31.2885 123.73 31.0913 122.797 31.0913 121.713C31.0913 120.626 31.2901 119.693 31.6879 118.914C32.0856 118.132 32.6291 117.532 33.3185 117.114C34.0079 116.693 34.7918 116.483 35.6701 116.483C36.2103 116.483 36.7141 116.561 37.1815 116.716C37.6521 116.869 38.0747 117.094 38.4492 117.392C38.8237 117.687 39.1336 118.049 39.3789 118.476C39.6242 118.901 39.7899 119.386 39.8761 119.933ZM41.595 126.804V119.167H43.0318V120.38H43.1113C43.2505 119.969 43.4958 119.646 43.8471 119.411C44.2018 119.172 44.6028 119.053 45.0502 119.053C45.1431 119.053 45.2524 119.056 45.3784 119.063C45.5076 119.07 45.6087 119.078 45.6816 119.088V120.51C45.622 120.493 45.5159 120.475 45.3635 120.455C45.211 120.432 45.0585 120.42 44.9061 120.42C44.5547 120.42 44.2415 120.495 43.9664 120.644C43.6947 120.79 43.4792 120.994 43.3201 121.255C43.161 121.514 43.0815 121.809 43.0815 122.14V126.804H41.595ZM49.9858 126.958C49.2334 126.958 48.5855 126.797 48.0419 126.476C47.5017 126.151 47.084 125.695 46.7891 125.108C46.4974 124.518 46.3516 123.827 46.3516 123.035C46.3516 122.253 46.4974 121.564 46.7891 120.967C47.084 120.37 47.495 119.905 48.022 119.57C48.5523 119.235 49.1721 119.068 49.8814 119.068C50.3123 119.068 50.7299 119.139 51.1342 119.282C51.5386 119.424 51.9015 119.648 52.223 119.953C52.5445 120.258 52.7981 120.654 52.9837 121.141C53.1693 121.625 53.2621 122.213 53.2621 122.906V123.433H47.1918V122.319H51.8054C51.8054 121.928 51.7259 121.582 51.5668 121.28C51.4077 120.975 51.1839 120.735 50.8956 120.559C50.6106 120.384 50.2758 120.296 49.8913 120.296C49.4737 120.296 49.1091 120.399 48.7976 120.604C48.4893 120.806 48.2507 121.071 48.0817 121.4C47.916 121.724 47.8331 122.077 47.8331 122.459V123.329C47.8331 123.839 47.9226 124.273 48.1016 124.631C48.2839 124.989 48.5374 125.263 48.8622 125.451C49.187 125.637 49.5665 125.73 50.0007 125.73C50.2824 125.73 50.5393 125.69 50.7713 125.611C51.0033 125.528 51.2038 125.405 51.3729 125.243C51.5419 125.08 51.6712 124.88 51.7607 124.641L53.1676 124.895C53.0549 125.309 52.8527 125.672 52.5611 125.983C52.2727 126.292 51.9098 126.532 51.4723 126.704C51.0381 126.873 50.5426 126.958 49.9858 126.958ZM57.7701 126.953C57.1536 126.953 56.6034 126.795 56.1195 126.481C55.6389 126.162 55.2611 125.71 54.986 125.123C54.7142 124.533 54.5783 123.826 54.5783 123C54.5783 122.175 54.7158 121.469 54.9909 120.883C55.2694 120.296 55.6505 119.847 56.1344 119.535C56.6183 119.224 57.1668 119.068 57.78 119.068C58.254 119.068 58.6351 119.147 58.9235 119.307C59.2151 119.462 59.4405 119.645 59.5996 119.853C59.762 120.062 59.888 120.246 59.9775 120.405H60.0669V116.622H61.5534V126.804H60.1017V125.616H59.9775C59.888 125.778 59.7587 125.964 59.5897 126.172C59.4239 126.381 59.1953 126.563 58.9036 126.719C58.6119 126.875 58.2341 126.953 57.7701 126.953ZM58.0982 125.685C58.5257 125.685 58.887 125.572 59.182 125.347C59.4803 125.118 59.7057 124.802 59.8581 124.397C60.0139 123.993 60.0918 123.522 60.0918 122.986C60.0918 122.455 60.0156 121.991 59.8631 121.593C59.7106 121.196 59.4869 120.886 59.1919 120.664C58.897 120.442 58.5324 120.331 58.0982 120.331C57.6507 120.331 57.2779 120.447 56.9796 120.679C56.6813 120.911 56.4559 121.227 56.3034 121.628C56.1543 122.029 56.0797 122.482 56.0797 122.986C56.0797 123.496 56.156 123.955 56.3084 124.363C56.4609 124.77 56.6863 125.093 56.9846 125.332C57.2862 125.567 57.6574 125.685 58.0982 125.685ZM63.6751 126.804V119.167H65.1616V126.804H63.6751ZM64.4258 117.989C64.1673 117.989 63.9452 117.903 63.7596 117.731C63.5773 117.555 63.4862 117.346 63.4862 117.104C63.4862 116.859 63.5773 116.65 63.7596 116.478C63.9452 116.302 64.1673 116.214 64.4258 116.214C64.6843 116.214 64.9047 116.302 65.087 116.478C65.2726 116.65 65.3654 116.859 65.3654 117.104C65.3654 117.346 65.2726 117.555 65.087 117.731C64.9047 117.903 64.6843 117.989 64.4258 117.989ZM70.726 119.167V120.361H66.5549V119.167H70.726ZM67.6735 117.338H69.16V124.562C69.16 124.85 69.2031 125.067 69.2892 125.213C69.3754 125.355 69.4864 125.453 69.6223 125.506C69.7615 125.556 69.9123 125.581 70.0748 125.581C70.1941 125.581 70.2985 125.572 70.388 125.556C70.4775 125.539 70.5471 125.526 70.5968 125.516L70.8652 126.744C70.7791 126.777 70.6564 126.81 70.4973 126.843C70.3382 126.88 70.1394 126.9 69.9007 126.903C69.5096 126.91 69.1451 126.84 68.807 126.694C68.4689 126.549 68.1955 126.323 67.9867 126.018C67.7779 125.713 67.6735 125.33 67.6735 124.87V117.338ZM76.2482 116.145L72.967 128.335H71.6396L74.9208 116.145H76.2482ZM80.9265 126.804H77.6303V116.622H81.0309C82.0285 116.622 82.8853 116.826 83.6012 117.233C84.3171 117.638 84.8656 118.219 85.2468 118.978C85.6313 119.734 85.8235 120.641 85.8235 121.698C85.8235 122.758 85.6296 123.67 85.2418 124.432C84.8574 125.195 84.3005 125.781 83.5714 126.192C82.8422 126.6 81.9606 126.804 80.9265 126.804ZM79.1665 125.461H80.842C81.6175 125.461 82.2622 125.316 82.7759 125.024C83.2897 124.729 83.6741 124.303 83.9293 123.746C84.1845 123.186 84.3121 122.503 84.3121 121.698C84.3121 120.899 84.1845 120.221 83.9293 119.665C83.6774 119.108 83.3013 118.685 82.8008 118.397C82.3003 118.108 81.6789 117.964 80.9364 117.964H79.1665V125.461ZM90.9057 126.958C90.1533 126.958 89.5054 126.797 88.9618 126.476C88.4216 126.151 88.004 125.695 87.709 125.108C87.4173 124.518 87.2715 123.827 87.2715 123.035C87.2715 122.253 87.4173 121.564 87.709 120.967C88.004 120.37 88.415 119.905 88.9419 119.57C89.4722 119.235 90.092 119.068 90.8013 119.068C91.2322 119.068 91.6498 119.139 92.0542 119.282C92.4585 119.424 92.8214 119.648 93.1429 119.953C93.4644 120.258 93.718 120.654 93.9036 121.141C94.0892 121.625 94.182 122.213 94.182 122.906V123.433H88.1117V122.319H92.7253C92.7253 121.928 92.6458 121.582 92.4867 121.28C92.3276 120.975 92.1039 120.735 91.8155 120.559C91.5305 120.384 91.1957 120.296 90.8113 120.296C90.3936 120.296 90.0291 120.399 89.7175 120.604C89.4093 120.806 89.1706 121.071 89.0016 121.4C88.8359 121.724 88.753 122.077 88.753 122.459V123.329C88.753 123.839 88.8425 124.273 89.0215 124.631C89.2038 124.989 89.4573 125.263 89.7821 125.451C90.1069 125.637 90.4864 125.73 90.9206 125.73C91.2024 125.73 91.4592 125.69 91.6912 125.611C91.9232 125.528 92.1238 125.405 92.2928 125.243C92.4618 125.08 92.5911 124.88 92.6806 124.641L94.0875 124.895C93.9748 125.309 93.7727 125.672 93.481 125.983C93.1926 126.292 92.8297 126.532 92.3922 126.704C91.958 126.873 91.4625 126.958 90.9057 126.958ZM95.9506 126.804V116.622H97.4371V120.405H97.5266C97.6128 120.246 97.7371 120.062 97.8995 119.853C98.0619 119.645 98.2873 119.462 98.5756 119.307C98.864 119.147 99.2451 119.068 99.7191 119.068C100.336 119.068 100.886 119.224 101.37 119.535C101.854 119.847 102.233 120.296 102.508 120.883C102.787 121.469 102.926 122.175 102.926 123C102.926 123.826 102.788 124.533 102.513 125.123C102.238 125.71 101.86 126.162 101.38 126.481C100.899 126.795 100.35 126.953 99.734 126.953C99.27 126.953 98.8905 126.875 98.5955 126.719C98.3039 126.563 98.0752 126.381 97.9094 126.172C97.7437 125.964 97.6161 125.778 97.5266 125.616H97.4023V126.804H95.9506ZM97.4073 122.986C97.4073 123.522 97.4852 123.993 97.641 124.397C97.7968 124.802 98.0221 125.118 98.3171 125.347C98.6121 125.572 98.9734 125.685 99.4009 125.685C99.8451 125.685 100.216 125.567 100.515 125.332C100.813 125.093 101.038 124.77 101.191 124.363C101.346 123.955 101.424 123.496 101.424 122.986C101.424 122.482 101.348 122.029 101.196 121.628C101.047 121.227 100.821 120.911 100.52 120.679C100.221 120.447 99.8484 120.331 99.4009 120.331C98.9701 120.331 98.6055 120.442 98.3072 120.664C98.0122 120.886 97.7885 121.196 97.636 121.593C97.4835 121.991 97.4073 122.455 97.4073 122.986ZM104.595 126.804V119.167H106.081V126.804H104.595ZM105.346 117.989C105.087 117.989 104.865 117.903 104.68 117.731C104.497 117.555 104.406 117.346 104.406 117.104C104.406 116.859 104.497 116.65 104.68 116.478C104.865 116.302 105.087 116.214 105.346 116.214C105.604 116.214 105.825 116.302 106.007 116.478C106.193 116.65 106.285 116.859 106.285 117.104C106.285 117.346 106.193 117.555 106.007 117.731C105.825 117.903 105.604 117.989 105.346 117.989ZM111.646 119.167V120.361H107.475V119.167H111.646ZM108.593 117.338H110.08V124.562C110.08 124.85 110.123 125.067 110.209 125.213C110.295 125.355 110.406 125.453 110.542 125.506C110.681 125.556 110.832 125.581 110.995 125.581C111.114 125.581 111.218 125.572 111.308 125.556C111.397 125.539 111.467 125.526 111.517 125.516L111.785 126.744C111.699 126.777 111.576 126.81 111.417 126.843C111.258 126.88 111.059 126.9 110.821 126.903C110.43 126.91 110.065 126.84 109.727 126.694C109.389 126.549 109.115 126.323 108.907 126.018C108.698 125.713 108.593 125.33 108.593 124.87V117.338ZM125.571 119.933H124.02C123.961 119.602 123.85 119.31 123.687 119.058C123.525 118.806 123.326 118.592 123.091 118.417C122.855 118.241 122.592 118.108 122.3 118.019C122.012 117.929 121.705 117.885 121.38 117.885C120.794 117.885 120.268 118.032 119.804 118.327C119.344 118.622 118.979 119.055 118.711 119.625C118.445 120.195 118.313 120.891 118.313 121.713C118.313 122.541 118.445 123.241 118.711 123.811C118.979 124.381 119.345 124.812 119.809 125.103C120.273 125.395 120.795 125.541 121.375 125.541C121.697 125.541 122.002 125.498 122.29 125.412C122.582 125.322 122.845 125.191 123.081 125.019C123.316 124.847 123.515 124.636 123.677 124.388C123.843 124.136 123.957 123.847 124.02 123.522L125.571 123.527C125.489 124.028 125.328 124.489 125.089 124.91C124.854 125.327 124.551 125.688 124.179 125.993C123.811 126.295 123.391 126.529 122.917 126.694C122.443 126.86 121.926 126.943 121.365 126.943C120.484 126.943 119.698 126.734 119.009 126.316C118.319 125.896 117.776 125.294 117.378 124.512C116.984 123.73 116.787 122.797 116.787 121.713C116.787 120.626 116.985 119.693 117.383 118.914C117.781 118.132 118.324 117.532 119.014 117.114C119.703 116.693 120.487 116.483 121.365 116.483C121.906 116.483 122.409 116.561 122.877 116.716C123.347 116.869 123.77 117.094 124.145 117.392C124.519 117.687 124.829 118.049 125.074 118.476C125.319 118.901 125.485 119.386 125.571 119.933ZM129.513 126.973C129.029 126.973 128.591 126.883 128.2 126.704C127.809 126.522 127.499 126.258 127.27 125.914C127.045 125.569 126.932 125.147 126.932 124.646C126.932 124.215 127.015 123.861 127.181 123.582C127.347 123.304 127.57 123.083 127.852 122.921C128.134 122.758 128.449 122.636 128.797 122.553C129.145 122.47 129.499 122.407 129.861 122.364C130.318 122.311 130.689 122.268 130.974 122.235C131.259 122.198 131.466 122.14 131.596 122.061C131.725 121.981 131.79 121.852 131.79 121.673V121.638C131.79 121.204 131.667 120.868 131.422 120.629C131.18 120.39 130.818 120.271 130.338 120.271C129.837 120.271 129.443 120.382 129.155 120.604C128.87 120.823 128.672 121.066 128.563 121.335L127.166 121.017C127.332 120.553 127.574 120.178 127.892 119.893C128.213 119.605 128.583 119.396 129.001 119.267C129.418 119.134 129.857 119.068 130.318 119.068C130.623 119.068 130.946 119.104 131.287 119.177C131.632 119.247 131.954 119.376 132.252 119.565C132.554 119.754 132.8 120.024 132.993 120.375C133.185 120.723 133.281 121.176 133.281 121.733V126.804H131.829V125.76H131.77C131.674 125.952 131.529 126.141 131.337 126.326C131.145 126.512 130.898 126.666 130.596 126.789C130.295 126.911 129.934 126.973 129.513 126.973ZM129.836 125.78C130.247 125.78 130.598 125.698 130.89 125.536C131.185 125.374 131.408 125.161 131.561 124.9C131.717 124.634 131.795 124.351 131.795 124.049V123.065C131.742 123.118 131.639 123.168 131.486 123.214C131.337 123.257 131.166 123.295 130.974 123.329C130.782 123.358 130.595 123.387 130.412 123.413C130.23 123.436 130.078 123.456 129.955 123.473C129.667 123.509 129.403 123.571 129.165 123.657C128.929 123.743 128.74 123.867 128.598 124.03C128.459 124.189 128.389 124.401 128.389 124.666C128.389 125.034 128.525 125.312 128.797 125.501C129.068 125.687 129.415 125.78 129.836 125.78ZM135.261 126.804V119.167H136.698V120.38H136.777C136.917 119.969 137.162 119.646 137.513 119.411C137.868 119.172 138.269 119.053 138.716 119.053C138.809 119.053 138.918 119.056 139.044 119.063C139.174 119.07 139.275 119.078 139.348 119.088V120.51C139.288 120.493 139.182 120.475 139.029 120.455C138.877 120.432 138.725 120.42 138.572 120.42C138.221 120.42 137.908 120.495 137.632 120.644C137.361 120.79 137.145 120.994 136.986 121.255C136.827 121.514 136.748 121.809 136.748 122.14V126.804H135.261ZM143.219 126.953C142.603 126.953 142.053 126.795 141.569 126.481C141.088 126.162 140.71 125.71 140.435 125.123C140.163 124.533 140.028 123.826 140.028 123C140.028 122.175 140.165 121.469 140.44 120.883C140.719 120.296 141.1 119.847 141.584 119.535C142.068 119.224 142.616 119.068 143.229 119.068C143.703 119.068 144.084 119.147 144.373 119.307C144.664 119.462 144.89 119.645 145.049 119.853C145.211 120.062 145.337 120.246 145.427 120.405H145.516V116.622H147.003V126.804H145.551V125.616H145.427C145.337 125.778 145.208 125.964 145.039 126.172C144.873 126.381 144.644 126.563 144.353 126.719C144.061 126.875 143.683 126.953 143.219 126.953ZM143.547 125.685C143.975 125.685 144.336 125.572 144.631 125.347C144.93 125.118 145.155 124.802 145.307 124.397C145.463 123.993 145.541 123.522 145.541 122.986C145.541 122.455 145.465 121.991 145.312 121.593C145.16 121.196 144.936 120.886 144.641 120.664C144.346 120.442 143.982 120.331 143.547 120.331C143.1 120.331 142.727 120.447 142.429 120.679C142.131 120.911 141.905 121.227 141.753 121.628C141.604 122.029 141.529 122.482 141.529 122.986C141.529 123.496 141.605 123.955 141.758 124.363C141.91 124.77 142.135 125.093 142.434 125.332C142.735 125.567 143.107 125.685 143.547 125.685Z" fill="#435376"/>
</svg>
