<svg width="24" height="24" viewBox="0 0 24 24" fill="none" xmlns="http://www.w3.org/2000/svg">
<g clip-path="url(#clip0_1345_339)">
<path d="M23.0539 4.875C23.0539 4.875 21.718 10.9266 16.7211 13.1203C15.9617 13.4531 15.343 14.0391 14.9633 14.7797L12.957 18.6937C12.957 18.6937 16.8289 20.5781 18.5914 17.2828C18.5914 17.2828 17.5039 17.3906 17.0445 17.25C17.0445 17.25 21.5211 17.2781 22.5664 13.5469C22.5664 13.5469 21.4789 14.3203 20.9352 14.3438C20.9352 14.3438 23.4383 13.0172 23.5367 9.72656C23.5367 9.72656 21.643 12.0797 20.4383 12.6C20.4336 12.5953 24.6242 10.0828 23.0539 4.875Z" fill="#FFCE00"/>
<path d="M0.947656 4.875C0.947656 4.875 2.28359 10.9266 7.28047 13.1203C8.03984 13.4531 8.65859 14.0391 9.03828 14.7797L11.0445 18.6937C11.0445 18.6937 7.17266 20.5781 5.41016 17.2828C5.41016 17.2828 6.49766 17.3906 6.95703 17.25C6.95703 17.25 2.48047 17.2781 1.43516 13.5469C1.43516 13.5469 2.52266 14.3203 3.06641 14.3438C3.06641 14.3438 0.563281 13.0172 0.464844 9.72656C0.464844 9.72656 2.35391 12.0797 3.56328 12.6C3.56797 12.5953 -0.622656 10.0828 0.947656 4.875Z" fill="#FFCE00"/>
<path d="M11.1465 11.1982H12.848V16.9639H11.1465V11.1982Z" fill="#FFB000"/>
<path d="M10.0742 18.5762C10.0742 17.5121 10.9367 16.6543 12.0008 16.6543C13.0648 16.6543 13.9227 17.5168 13.9227 18.5762H10.0742Z" fill="#FFCE00"/>
<path d="M9.29648 18.5762H14.7012C15.198 18.5762 15.6012 18.9793 15.6012 19.4762V21.0512H8.39648V19.4762C8.39648 18.9793 8.79961 18.5762 9.29648 18.5762Z" fill="#4D7382"/>
<path d="M7.8332 21.0518H16.1676C16.852 21.0518 17.4051 21.6049 17.4051 22.2893C17.4051 22.9736 16.852 23.5268 16.1676 23.5268H7.8332C7.14883 23.5268 6.5957 22.9736 6.5957 22.2893C6.5957 21.6096 7.14883 21.0518 7.8332 21.0518Z" fill="#FFCE00"/>
<path d="M13.3025 1.25586L14.4978 3.54336L17.0431 3.97461C18.215 4.17149 18.6791 5.60586 17.8494 6.4543L16.0447 8.30117L16.4197 10.8559C16.5931 12.0277 15.3744 12.9137 14.3103 12.3887L11.9994 11.2402L9.68843 12.384C8.62437 12.909 7.40562 12.0277 7.57906 10.8512L7.95406 8.29649L6.14937 6.44961C5.31968 5.60117 5.78374 4.17149 6.95562 3.96992L9.50093 3.53867L10.6962 1.25117C11.2447 0.20586 12.7494 0.20586 13.3025 1.25586Z" fill="#FFCE00"/>
</g>
<defs>
<clipPath id="clip0_1345_339">
<rect width="24" height="24" fill="white"/>
</clipPath>
</defs>
</svg>
