<svg width="17" height="14" viewBox="0 0 17 14" fill="none" xmlns="http://www.w3.org/2000/svg">
<path d="M8.51367 4.0332V7.8427L11.7746 9.77795L12.3232 8.85224L9.65653 7.27127V4.0332H8.51367Z" fill="#2D5AC7"/>
<path d="M9.27185 0.224609C5.48138 0.224609 2.41853 3.29507 2.41853 7.08175H0.132812L3.10042 10.0494L3.15374 10.1598L6.22806 7.08175H3.94235C3.94235 4.137 6.33092 1.74843 9.27567 1.74843C12.2204 1.74843 14.609 4.137 14.609 7.08175C14.609 10.0265 12.2204 12.4151 9.27567 12.4151C7.80138 12.4151 6.47185 11.8132 5.50806 10.8494L4.42996 11.9275C5.66806 13.1694 7.37853 13.9389 9.27185 13.9389C13.0623 13.9389 16.1328 10.8684 16.1328 7.08175C16.1328 3.29507 13.0623 0.224609 9.27185 0.224609Z" fill="#2D5AC7"/>
</svg>
