<svg width="21" height="25" viewBox="0 0 21 25" fill="none" xmlns="http://www.w3.org/2000/svg">
<path d="M15.2656 13.2478C15.6649 13.1052 15.933 12.7239 15.933 12.2999C15.933 11.876 15.6649 11.4947 15.2672 11.352L13.4387 10.6928C11.6331 10.0425 10.2243 8.63298 9.57327 6.82739L8.914 4.99883C8.77051 4.60114 8.39003 4.33301 7.96775 4.33301C7.54464 4.33301 7.16335 4.60032 7.01903 4.99883L6.36058 6.82739C5.70952 8.6338 4.3008 10.0425 2.49438 10.6928L0.667464 11.352C0.268134 11.4955 0 11.876 0 12.2999C0 12.7239 0.268134 13.1043 0.665824 13.2478L2.49438 13.9071C4.29997 14.5573 5.7087 15.9661 6.35977 17.7725L7.01903 19.6019C7.16253 19.9995 7.54382 20.2669 7.96693 20.2669C8.39004 20.2669 8.77133 19.9987 8.914 19.601L9.57327 17.7725C10.2235 15.9669 11.6331 14.5582 13.4387 13.9071L15.2656 13.2478ZM12.8827 12.3639C10.6155 13.1806 8.84676 14.9493 8.03006 17.2165L7.96611 17.3936L7.90215 17.2165C7.08463 14.9493 5.31593 13.1806 3.04951 12.3639L2.87321 12.2999L3.05033 12.236C5.31757 11.4193 7.08627 9.65058 7.90297 7.38333L7.96693 7.20622L8.03088 7.38333C8.84758 9.65058 10.6163 11.4193 12.8827 12.236L13.0598 12.2999L12.8827 12.3639Z" fill="#071D4C"/>
<path d="M12.4509 5.29953L13.3766 5.63326C14.1777 5.9219 14.8017 6.54672 15.0904 7.34702L15.4233 8.27196C15.5537 8.63439 15.8997 8.87792 16.2843 8.87792C16.6688 8.87792 17.0157 8.63439 17.1452 8.27278L17.479 7.34702C17.7676 6.5459 18.3924 5.92108 19.1927 5.63326L20.1193 5.29953C20.4793 5.16915 20.7228 4.82394 20.7236 4.44101C20.7244 4.05808 20.4834 3.71123 20.1193 3.57839L19.1927 3.24466C18.3924 2.95603 17.7676 2.3312 17.479 1.5309L17.1452 0.605145C17.0149 0.242714 16.6696 0 16.2851 0C15.8997 0 15.5537 0.243534 15.4241 0.605145L15.0904 1.5309C14.8017 2.33202 14.1769 2.95603 13.3766 3.24466L12.4484 3.57921C12.0876 3.71041 11.8449 4.05726 11.8457 4.44101C11.8465 4.82476 12.0901 5.16997 12.4509 5.29953ZM16.2851 2.83303C16.6737 3.49885 17.2256 4.0507 17.8906 4.43855C17.2248 4.82722 16.6729 5.37907 16.2851 6.04407C15.8964 5.37907 15.3446 4.8264 14.6796 4.43855C15.3446 4.04988 15.8964 3.49803 16.2851 2.83303Z" fill="#071D4C"/>
<path d="M20.1193 19.3001L19.1935 18.9663C18.3932 18.6777 17.7684 18.0529 17.4798 17.2526L17.1461 16.3268C17.0157 15.9652 16.6696 15.7217 16.2851 15.7217C15.8997 15.7217 15.5537 15.9652 15.4241 16.3268L15.0904 17.2526C14.8017 18.0537 14.1769 18.6785 13.3766 18.9663L12.4517 19.2993C12.0901 19.4288 11.8465 19.7748 11.8457 20.1586C11.8449 20.5423 12.0868 20.8892 12.4509 21.0212L13.3766 21.3549C14.1777 21.6436 14.8026 22.2676 15.0904 23.0687L15.4233 23.9936C15.5545 24.3561 15.9005 24.5996 16.2859 24.5996C16.6713 24.5996 17.0173 24.3561 17.1469 23.9945L17.4806 23.0687C17.7692 22.2684 18.3941 21.6436 19.1944 21.3549L20.1242 21.0204C20.4842 20.8884 20.7261 20.5423 20.7253 20.1586C20.7244 19.7748 20.4801 19.4304 20.1193 19.3001ZM16.2859 21.7666C15.8972 21.1007 15.3454 20.5489 14.6804 20.1611C15.3454 19.7724 15.898 19.2205 16.2859 18.5555C16.6746 19.2205 17.2264 19.7732 17.8914 20.1611C17.2264 20.5497 16.6737 21.1016 16.2859 21.7666Z" fill="#071D4C"/>
</svg>
