<svg width="45" height="46" viewBox="0 0 45 46" fill="none" xmlns="http://www.w3.org/2000/svg">
<path d="M22.5025 26.85C21.4528 26.85 20.446 26.4444 19.7038 25.7224C18.9615 25.0003 18.5445 24.0211 18.5445 23C18.5445 21.9789 18.9615 20.9997 19.7038 20.2776C20.446 19.5556 21.4528 19.15 22.5025 19.15C23.5522 19.15 24.559 19.5556 25.3012 20.2776C26.0435 20.9997 26.4605 21.9789 26.4605 23C26.4605 24.0211 26.0435 25.0003 25.3012 25.7224C24.559 26.4444 23.5522 26.85 22.5025 26.85ZM30.9048 24.067C30.95 23.715 30.9839 23.363 30.9839 23C30.9839 22.637 30.95 22.274 30.9048 21.9L33.2909 20.107C33.5058 19.942 33.5623 19.645 33.4266 19.403L31.1649 15.597C31.0292 15.355 30.7238 15.256 30.475 15.355L27.6592 16.455C27.0712 16.026 26.4605 15.652 25.7481 15.377L25.3296 12.462C25.3067 12.3324 25.2373 12.215 25.1338 12.1304C25.0303 12.0458 24.8994 11.9996 24.7642 12H20.2408C19.9581 12 19.7206 12.198 19.6754 12.462L19.2569 15.377C18.5445 15.652 17.9338 16.026 17.3458 16.455L14.5299 15.355C14.2812 15.256 13.9758 15.355 13.8401 15.597L11.5784 19.403C11.4314 19.645 11.4992 19.942 11.7141 20.107L14.1002 21.9C14.055 22.274 14.0211 22.637 14.0211 23C14.0211 23.363 14.055 23.715 14.1002 24.067L11.7141 25.893C11.4992 26.058 11.4314 26.355 11.5784 26.597L13.8401 30.403C13.9758 30.645 14.2812 30.733 14.5299 30.645L17.3458 29.534C17.9338 29.974 18.5445 30.348 19.2569 30.623L19.6754 33.538C19.7206 33.802 19.9581 34 20.2408 34H24.7642C25.0469 34 25.2844 33.802 25.3296 33.538L25.7481 30.623C26.4605 30.337 27.0712 29.974 27.6592 29.534L30.475 30.645C30.7238 30.733 31.0292 30.645 31.1649 30.403L33.4266 26.597C33.5623 26.355 33.5058 26.058 33.2909 25.893L30.9048 24.067Z" fill="#071D4C"/>
</svg>
