<svg width="52" height="52" viewBox="0 0 52 52" fill="none" xmlns="http://www.w3.org/2000/svg">
<rect x="1.5" y="1.5" width="49" height="49" rx="24.5" stroke="#071D4C" stroke-width="3"/>
<path d="M36.8877 15.5681C36.8877 15.5681 39.3158 14.6213 39.1127 16.9206C39.0458 17.8675 38.4389 21.1819 37.9664 24.7663L36.3477 35.385C36.3477 35.385 36.2127 36.9406 34.9983 37.2113C33.7846 37.4813 31.9633 36.2644 31.6258 35.9938C31.3558 35.7906 26.5671 32.7469 24.8808 31.2594C24.4083 30.8531 23.8683 30.0419 24.9483 29.095L32.0308 22.3313C32.8402 21.5188 33.6496 19.625 30.2771 21.925L20.8333 28.35C20.8333 28.35 19.7539 29.0269 17.7308 28.4181L13.3458 27.065C13.3458 27.065 11.7271 26.0506 14.4927 25.0363C21.2383 21.8575 29.5352 18.6113 36.8871 15.5675" fill="#071D4C"/>
</svg>
